<mxfile host="65bd71144e">
    <diagram id="8YyrTnLRIeu4sLVfzDdA" name="페이지-1">
        <mxGraphModel dx="780" dy="626" grid="1" gridSize="10" guides="1" tooltips="1" connect="1" arrows="1" fold="1" page="1" pageScale="1" pageWidth="827" pageHeight="1169" math="0" shadow="0">
            <root>
                <mxCell id="0"/>
                <mxCell id="1" parent="0"/>
                <mxCell id="3" style="edgeStyle=none;html=1;entryX=0;entryY=0.5;entryDx=0;entryDy=0;exitX=0;exitY=0.5;exitDx=0;exitDy=0;strokeColor=#CC0000;" parent="1" source="2" target="4" edge="1">
                    <mxGeometry relative="1" as="geometry">
                        <mxPoint x="410" y="400" as="targetPoint"/>
                        <Array as="points">
                            <mxPoint x="30" y="520"/>
                            <mxPoint x="30" y="390"/>
                            <mxPoint x="30" y="210"/>
                        </Array>
                    </mxGeometry>
                </mxCell>
                <mxCell id="18" style="edgeStyle=none;html=1;entryX=0;entryY=0.5;entryDx=0;entryDy=0;strokeColor=#CC0000;startArrow=none;exitX=0.5;exitY=0;exitDx=0;exitDy=0;" parent="1" source="2" target="5" edge="1">
                    <mxGeometry relative="1" as="geometry">
                        <mxPoint x="550" y="350" as="targetPoint"/>
                        <Array as="points">
                            <mxPoint x="120" y="350"/>
                        </Array>
                        <mxPoint x="110" y="350" as="sourcePoint"/>
                    </mxGeometry>
                </mxCell>
                <mxCell id="19" style="edgeStyle=none;html=1;entryX=0;entryY=0.5;entryDx=0;entryDy=0;strokeColor=#CC0000;" parent="1" source="2" target="6" edge="1">
                    <mxGeometry relative="1" as="geometry">
                        <Array as="points">
                            <mxPoint x="190" y="440"/>
                        </Array>
                    </mxGeometry>
                </mxCell>
                <mxCell id="20" style="edgeStyle=none;html=1;entryX=0;entryY=0.5;entryDx=0;entryDy=0;strokeColor=#CC0000;exitX=0.671;exitY=0.979;exitDx=0;exitDy=0;exitPerimeter=0;" parent="1" source="2" target="10" edge="1">
                    <mxGeometry relative="1" as="geometry">
                        <mxPoint x="130" y="620" as="sourcePoint"/>
                        <Array as="points">
                            <mxPoint x="134" y="760"/>
                        </Array>
                    </mxGeometry>
                </mxCell>
                <mxCell id="21" style="edgeStyle=none;html=1;entryX=0;entryY=0.5;entryDx=0;entryDy=0;strokeColor=#CC0000;" parent="1" source="2" target="9" edge="1">
                    <mxGeometry relative="1" as="geometry">
                        <Array as="points">
                            <mxPoint x="180" y="680"/>
                        </Array>
                    </mxGeometry>
                </mxCell>
                <mxCell id="40" value="Text" style="edgeLabel;html=1;align=center;verticalAlign=middle;resizable=0;points=[];" parent="21" vertex="1" connectable="0">
                    <mxGeometry x="0.6123" y="-1" relative="1" as="geometry">
                        <mxPoint as="offset"/>
                    </mxGeometry>
                </mxCell>
                <mxCell id="22" style="edgeStyle=none;html=1;entryX=0;entryY=0.5;entryDx=0;entryDy=0;strokeColor=#CC0000;" parent="1" source="2" target="8" edge="1">
                    <mxGeometry relative="1" as="geometry">
                        <Array as="points">
                            <mxPoint x="140" y="570"/>
                            <mxPoint x="190" y="600"/>
                        </Array>
                    </mxGeometry>
                </mxCell>
                <mxCell id="23" style="edgeStyle=none;html=1;entryX=0;entryY=0.5;entryDx=0;entryDy=0;strokeColor=#CC0000;startArrow=none;" parent="1" target="7" edge="1">
                    <mxGeometry relative="1" as="geometry">
                        <mxPoint x="160" y="520" as="sourcePoint"/>
                    </mxGeometry>
                </mxCell>
                <mxCell id="2" value="Client&lt;br&gt;(Browser)" style="ellipse;whiteSpace=wrap;html=1;aspect=fixed;fillColor=#f5f5f5;fontColor=#333333;strokeColor=#666666;" parent="1" vertex="1">
                    <mxGeometry x="80" y="480" width="80" height="80" as="geometry"/>
                </mxCell>
                <mxCell id="11" style="edgeStyle=none;html=1;entryX=1;entryY=0.5;entryDx=0;entryDy=0;dashed=1;dashPattern=8 8;" parent="1" source="4" target="5" edge="1">
                    <mxGeometry relative="1" as="geometry">
                        <Array as="points">
                            <mxPoint x="540" y="210"/>
                            <mxPoint x="540" y="350"/>
                        </Array>
                    </mxGeometry>
                </mxCell>
                <mxCell id="12" style="edgeStyle=none;html=1;entryX=1;entryY=0.5;entryDx=0;entryDy=0;dashed=1;dashPattern=8 8;" parent="1" source="4" target="6" edge="1">
                    <mxGeometry relative="1" as="geometry">
                        <Array as="points">
                            <mxPoint x="560" y="210"/>
                            <mxPoint x="560" y="440"/>
                        </Array>
                    </mxGeometry>
                </mxCell>
                <mxCell id="13" style="edgeStyle=none;html=1;entryX=1;entryY=0.5;entryDx=0;entryDy=0;dashed=1;dashPattern=8 8;" parent="1" source="4" target="7" edge="1">
                    <mxGeometry relative="1" as="geometry">
                        <mxPoint x="530" y="520" as="targetPoint"/>
                        <Array as="points">
                            <mxPoint x="580" y="210"/>
                            <mxPoint x="580" y="520"/>
                        </Array>
                    </mxGeometry>
                </mxCell>
                <mxCell id="15" style="edgeStyle=none;html=1;entryX=1;entryY=0.5;entryDx=0;entryDy=0;dashed=1;dashPattern=8 8;" parent="1" source="4" target="8" edge="1">
                    <mxGeometry relative="1" as="geometry">
                        <Array as="points">
                            <mxPoint x="600" y="210"/>
                            <mxPoint x="600" y="600"/>
                        </Array>
                    </mxGeometry>
                </mxCell>
                <mxCell id="16" style="edgeStyle=none;html=1;dashed=1;dashPattern=8 8;" parent="1" source="4" target="9" edge="1">
                    <mxGeometry relative="1" as="geometry">
                        <Array as="points">
                            <mxPoint x="620" y="210"/>
                            <mxPoint x="620" y="680"/>
                        </Array>
                    </mxGeometry>
                </mxCell>
                <mxCell id="17" style="edgeStyle=none;html=1;entryX=1;entryY=0.5;entryDx=0;entryDy=0;dashed=1;dashPattern=8 8;" parent="1" source="4" target="10" edge="1">
                    <mxGeometry relative="1" as="geometry">
                        <Array as="points">
                            <mxPoint x="640" y="210"/>
                            <mxPoint x="640" y="760"/>
                        </Array>
                    </mxGeometry>
                </mxCell>
                <mxCell id="4" value="MFE-Shell&lt;br&gt;(MPA or HDA)" style="rounded=0;whiteSpace=wrap;html=1;fillColor=#fff2cc;strokeColor=#d6b656;" parent="1" vertex="1">
                    <mxGeometry x="120" y="180" width="120" height="60" as="geometry"/>
                </mxCell>
                <mxCell id="26" style="edgeStyle=none;html=1;entryX=0;entryY=0.5;entryDx=0;entryDy=0;strokeColor=#0000CC;" parent="1" source="5" target="25" edge="1">
                    <mxGeometry relative="1" as="geometry"/>
                </mxCell>
                <mxCell id="5" value="MFE-Common&lt;br&gt;(HDA)" style="rounded=0;whiteSpace=wrap;html=1;fillColor=#fff2cc;strokeColor=#d6b656;" parent="1" vertex="1">
                    <mxGeometry x="350" y="320" width="120" height="60" as="geometry"/>
                </mxCell>
                <mxCell id="27" style="edgeStyle=none;html=1;entryX=0;entryY=0.5;entryDx=0;entryDy=0;strokeColor=#0000CC;" parent="1" source="6" target="25" edge="1">
                    <mxGeometry relative="1" as="geometry"/>
                </mxCell>
                <mxCell id="6" value="MFE-Clusters&lt;br&gt;(HDA)" style="rounded=0;whiteSpace=wrap;html=1;fillColor=#fff2cc;strokeColor=#d6b656;" parent="1" vertex="1">
                    <mxGeometry x="350" y="410" width="120" height="60" as="geometry"/>
                </mxCell>
                <mxCell id="32" style="edgeStyle=none;html=1;entryX=0;entryY=0.5;entryDx=0;entryDy=0;strokeColor=#0000CC;" parent="1" source="7" target="25" edge="1">
                    <mxGeometry relative="1" as="geometry"/>
                </mxCell>
                <mxCell id="7" value="MFE-Projects&lt;br&gt;(HDA)" style="rounded=0;whiteSpace=wrap;html=1;fillColor=#fff2cc;strokeColor=#d6b656;" parent="1" vertex="1">
                    <mxGeometry x="350" y="490" width="120" height="60" as="geometry"/>
                </mxCell>
                <mxCell id="29" style="edgeStyle=none;html=1;entryX=0;entryY=0.5;entryDx=0;entryDy=0;strokeColor=#0000CC;" parent="1" source="8" target="25" edge="1">
                    <mxGeometry relative="1" as="geometry"/>
                </mxCell>
                <mxCell id="8" value="MFE-Storage&lt;br&gt;(HDA)" style="rounded=0;whiteSpace=wrap;html=1;fillColor=#fff2cc;strokeColor=#d6b656;" parent="1" vertex="1">
                    <mxGeometry x="350" y="570" width="120" height="60" as="geometry"/>
                </mxCell>
                <mxCell id="30" style="edgeStyle=none;html=1;entryX=0.5;entryY=1;entryDx=0;entryDy=0;strokeColor=#0000CC;startArrow=none;exitX=0.5;exitY=1;exitDx=0;exitDy=0;" parent="1" source="2" target="25" edge="1">
                    <mxGeometry relative="1" as="geometry">
                        <mxPoint x="30" y="730" as="sourcePoint"/>
                        <Array as="points">
                            <mxPoint x="120" y="830"/>
                            <mxPoint x="750" y="830"/>
                        </Array>
                    </mxGeometry>
                </mxCell>
                <mxCell id="9" value="MFE-Addons&lt;br&gt;(Vue/React)" style="rounded=0;whiteSpace=wrap;html=1;fillColor=#d5e8d4;strokeColor=#82b366;" parent="1" vertex="1">
                    <mxGeometry x="350" y="650" width="120" height="60" as="geometry"/>
                </mxCell>
                <mxCell id="31" style="edgeStyle=none;html=1;entryX=0.5;entryY=1;entryDx=0;entryDy=0;strokeColor=#0000CC;exitX=0;exitY=1;exitDx=0;exitDy=0;" parent="1" source="2" target="25" edge="1">
                    <mxGeometry relative="1" as="geometry">
                        <mxPoint x="50" y="560" as="sourcePoint"/>
                        <Array as="points">
                            <mxPoint x="90" y="870"/>
                            <mxPoint x="750" y="870"/>
                        </Array>
                    </mxGeometry>
                </mxCell>
                <mxCell id="10" value="MFE-IAM&lt;br&gt;(Vue/React)" style="rounded=0;whiteSpace=wrap;html=1;fillColor=#d5e8d4;strokeColor=#82b366;" parent="1" vertex="1">
                    <mxGeometry x="350" y="730" width="120" height="60" as="geometry"/>
                </mxCell>
                <mxCell id="24" value="Fetch metadata from DB/Files" style="text;html=1;strokeColor=none;fillColor=none;align=center;verticalAlign=middle;whiteSpace=wrap;rounded=0;" parent="1" vertex="1">
                    <mxGeometry x="260" y="170" width="190" height="30" as="geometry"/>
                </mxCell>
                <mxCell id="25" value="Backend-Upstream" style="rounded=0;whiteSpace=wrap;html=1;fillColor=#f5f5f5;fontColor=#333333;strokeColor=#666666;" parent="1" vertex="1">
                    <mxGeometry x="690" y="490" width="120" height="60" as="geometry"/>
                </mxCell>
                <mxCell id="33" value="" style="endArrow=classic;html=1;strokeColor=#330000;dashed=1;dashPattern=8 8;" parent="1" edge="1">
                    <mxGeometry width="50" height="50" relative="1" as="geometry">
                        <mxPoint x="110" y="155" as="sourcePoint"/>
                        <mxPoint x="200" y="155" as="targetPoint"/>
                    </mxGeometry>
                </mxCell>
                <mxCell id="35" value="" style="endArrow=classic;html=1;strokeColor=#CC0000;" parent="1" edge="1">
                    <mxGeometry width="50" height="50" relative="1" as="geometry">
                        <mxPoint x="230" y="155" as="sourcePoint"/>
                        <mxPoint x="320" y="155" as="targetPoint"/>
                    </mxGeometry>
                </mxCell>
                <mxCell id="36" value="" style="endArrow=classic;html=1;strokeColor=#0000CC;" parent="1" edge="1">
                    <mxGeometry width="50" height="50" relative="1" as="geometry">
                        <mxPoint x="340" y="155" as="sourcePoint"/>
                        <mxPoint x="430" y="155" as="targetPoint"/>
                    </mxGeometry>
                </mxCell>
                <mxCell id="37" value="Fetch Meata" style="text;html=1;align=center;verticalAlign=middle;resizable=0;points=[];autosize=1;strokeColor=none;fillColor=none;" parent="1" vertex="1">
                    <mxGeometry x="110" y="115" width="90" height="30" as="geometry"/>
                </mxCell>
                <mxCell id="38" value="HDA&lt;br&gt;API" style="text;html=1;align=center;verticalAlign=middle;resizable=0;points=[];autosize=1;strokeColor=none;fillColor=none;" parent="1" vertex="1">
                    <mxGeometry x="250" y="110" width="50" height="40" as="geometry"/>
                </mxCell>
                <mxCell id="39" value="Restful&lt;br&gt;API" style="text;html=1;align=center;verticalAlign=middle;resizable=0;points=[];autosize=1;strokeColor=none;fillColor=none;" parent="1" vertex="1">
                    <mxGeometry x="355" y="110" width="60" height="40" as="geometry"/>
                </mxCell>
                <mxCell id="41" value="Direct Restfule&lt;br&gt;API" style="text;html=1;align=center;verticalAlign=middle;resizable=0;points=[];autosize=1;strokeColor=none;fillColor=none;" parent="1" vertex="1">
                    <mxGeometry x="275" y="830" width="100" height="40" as="geometry"/>
                </mxCell>
                <mxCell id="44" style="edgeStyle=none;html=1;entryX=0.5;entryY=0;entryDx=0;entryDy=0;" parent="1" source="42" target="43" edge="1">
                    <mxGeometry relative="1" as="geometry"/>
                </mxCell>
                <mxCell id="42" value="ingress" style="rounded=0;whiteSpace=wrap;html=1;" parent="1" vertex="1">
                    <mxGeometry x="240" y="320" width="60" height="450" as="geometry"/>
                </mxCell>
                <mxCell id="43" value="auth" style="rounded=0;whiteSpace=wrap;html=1;" parent="1" vertex="1">
                    <mxGeometry x="240" y="900" width="60" height="60" as="geometry"/>
                </mxCell>
                <mxCell id="45" value="http://cloudz.co.kr" style="text;html=1;strokeColor=none;fillColor=none;align=center;verticalAlign=middle;whiteSpace=wrap;rounded=0;" parent="1" vertex="1">
                    <mxGeometry x="20" y="230" width="160" height="30" as="geometry"/>
                </mxCell>
                <mxCell id="48" value="http://cloudz.co.kr/cp/cluster" style="text;html=1;strokeColor=none;fillColor=none;align=center;verticalAlign=middle;whiteSpace=wrap;rounded=0;" parent="1" vertex="1">
                    <mxGeometry x="100" y="410" width="160" height="30" as="geometry"/>
                </mxCell>
                <mxCell id="46" value="http://cloudz.co.kr/common" style="text;html=1;strokeColor=none;fillColor=none;align=center;verticalAlign=middle;whiteSpace=wrap;rounded=0;" parent="1" vertex="1">
                    <mxGeometry x="80" y="350" width="160" height="30" as="geometry"/>
                </mxCell>
                <mxCell id="52" value="reverse proxy" style="text;html=1;align=center;verticalAlign=middle;resizable=0;points=[];autosize=1;strokeColor=none;fillColor=none;fontColor=#CC0000;fontStyle=1" parent="1" vertex="1">
                    <mxGeometry x="220" y="290" width="100" height="30" as="geometry"/>
                </mxCell>
                <mxCell id="53" value="http://cloudz.co.kr/cp/project" style="text;html=1;strokeColor=none;fillColor=none;align=center;verticalAlign=middle;whiteSpace=wrap;rounded=0;" vertex="1" parent="1">
                    <mxGeometry x="130" y="490" width="160" height="30" as="geometry"/>
                </mxCell>
            </root>
        </mxGraphModel>
    </diagram>
</mxfile>